<svg xmlns="http://www.w3.org/2000/svg" width="20.591" height="16.679" viewBox="0 0 20.591 16.679">
  <g id="hyperloop" transform="translate(0 -47.976)">
    <path id="Path_883" data-name="Path 883" d="M34.878,56.911a10.6,10.6,0,0,0-8.234-3.93H21.092a13.952,13.952,0,0,1,.413-1.914c.439-1.468.907-1.786,1-1.786.114,0,.676.412,1.143,2.317a.652.652,0,1,0,1.267-.311c-.531-2.166-1.364-3.311-2.41-3.311-1.461,0-2.348,2.246-2.729,5H16.01a.652.652,0,1,0,0,1.3h3.623a25.919,25.919,0,0,0,.044,4.547h-.791a.652.652,0,1,0,0,1.3h.961c.416,2.531,1.282,4.517,2.656,4.517s2.24-1.986,2.656-4.517h8.179A1.981,1.981,0,0,0,34.878,56.911Zm-2.369-.535a7.819,7.819,0,0,1-4.42-.826,6.487,6.487,0,0,1-1.6-1.264A9.281,9.281,0,0,1,32.51,56.376ZM23.5,61.564c-.439,1.468-.907,1.786-1,1.786s-.56-.318-1-1.786a13.046,13.046,0,0,1-.332-1.426h2.663A13.045,13.045,0,0,1,23.5,61.564Zm9.836-2.731H20.988a24.6,24.6,0,0,1-.046-4.547H24.83a7.778,7.778,0,0,0,6.425,3.395h2.567l.043.051A.675.675,0,0,1,33.338,58.833Z" transform="translate(-14.732)" fill="#47b181"/>
    <path id="Path_884" data-name="Path 884" d="M26.758,314.261h-.6a.652.652,0,1,0,0,1.3h.6a.652.652,0,1,0,0-1.3Z" transform="translate(-24.471 -255.428)" fill="#47b181"/>
    <path id="Path_885" data-name="Path 885" d="M4.435,266.536a.652.652,0,0,0-.652-.652H.652a.652.652,0,0,0,0,1.3H3.783A.652.652,0,0,0,4.435,266.536Z" transform="translate(0 -209.023)" fill="#47b181"/>
    <path id="Path_886" data-name="Path 886" d="M45.781,217.65a.652.652,0,1,0,0-1.3h-.642a.652.652,0,1,0,0,1.3Z" transform="translate(-42.673 -161.504)" fill="#47b181"/>
  </g>
</svg>
