<svg xmlns="http://www.w3.org/2000/svg" width="17.481" height="17.454" viewBox="0 0 17.481 17.454">
  <g id="add_1_" data-name="add (1)" transform="translate(0 -0.036)">
    <path id="Path_790" data-name="Path 790" d="M15.734,20.469a4.734,4.734,0,1,1,4.734-4.734A4.74,4.74,0,0,1,15.734,20.469Zm0-8.376a3.642,3.642,0,1,0,3.642,3.642A3.646,3.646,0,0,0,15.734,12.093Z" transform="translate(-2.988 -2.978)" fill="#47b181"/>
    <path id="Path_791" data-name="Path 791" d="M17.3,19.1a.546.546,0,0,1-.546-.546V14.546a.546.546,0,1,1,1.093,0v4.006A.546.546,0,0,1,17.3,19.1Z" transform="translate(-4.55 -3.793)" fill="#47b181"/>
    <path id="Path_792" data-name="Path 792" d="M18.552,17.843H14.546a.546.546,0,1,1,0-1.093h4.006a.546.546,0,0,1,0,1.093Z" transform="translate(-3.803 -4.54)" fill="#47b181"/>
    <path id="Path_793" data-name="Path 793" d="M18.544,7.48a.542.542,0,0,1-.386-.16L15.146,4.309a.546.546,0,0,1,.773-.773l3.012,3.011a.547.547,0,0,1-.387.933Z" transform="translate(-4.071 -0.907)" fill="#47b181"/>
    <path id="Path_794" data-name="Path 794" d="M.546,17.491a.547.547,0,0,1-.513-.733L1.766,11.98a.539.539,0,0,1,.127-.2L12.878.8a2.748,2.748,0,0,1,3.812,0,2.683,2.683,0,0,1-.005,3.812L14.4,6.9a.546.546,0,0,1-.773-.773L15.915,3.84a1.591,1.591,0,0,0,0-2.265,1.627,1.627,0,0,0-2.263,0L2.752,12.467,1.458,16.033,5.024,14.74l1.094-1.095a.546.546,0,1,1,.773.773L5.71,15.6a.541.541,0,0,1-.2.127L.733,17.458a.553.553,0,0,1-.186.033Z" transform="translate(0 0)" fill="#47b181"/>
    <path id="Path_795" data-name="Path 795" d="M5.969,20.078a.542.542,0,0,1-.386-.16L2.54,16.875a.546.546,0,0,1,.773-.773l3.043,3.043a.546.546,0,0,1-.387.932Z" transform="translate(-0.647 -4.321)" fill="#47b181"/>
  </g>
</svg>
