<svg xmlns="http://www.w3.org/2000/svg" width="18.205" height="11.016" viewBox="0 0 18.205 11.016">
  <g id="Group_2196" data-name="Group 2196" transform="translate(-10.138 -18.163)">
    <path id="Path_796" data-name="Path 796" d="M22.835,18.163H15.646a5.508,5.508,0,0,0,0,11.016h7.189a5.508,5.508,0,1,0,0-11.016Zm4.677,5.508a4.682,4.682,0,0,1-4.677,4.676H15.646a4.676,4.676,0,0,1,0-9.353h7.189A4.682,4.682,0,0,1,27.512,23.671Z" transform="translate(0 0)" fill="#47b181"/>
    <path id="Path_797" data-name="Path 797" d="M33.134,21.975a3.734,3.734,0,1,0,3.734,3.734A3.738,3.738,0,0,0,33.134,21.975Zm2.945,3.734a2.945,2.945,0,1,1-2.945-2.945A2.948,2.948,0,0,1,36.079,25.709Z" transform="translate(-10.299 -2.038)" fill="#47b181"/>
    <path id="Path_798" data-name="Path 798" d="M20.853,23.956a.417.417,0,0,0-.416.416v4.793a.416.416,0,1,0,.832,0V24.372A.416.416,0,0,0,20.853,23.956Z" transform="translate(-5.507 -3.097)" fill="#47b181"/>
  </g>
</svg>
