<svg xmlns="http://www.w3.org/2000/svg" width="15.323" height="15.323" viewBox="0 0 15.323 15.323">
  <g id="divide" transform="translate(0.499 0.499)">
    <path id="Path_799" data-name="Path 799" d="M117.778,130.1a.446.446,0,0,1-.446-.446v-6.542a.446.446,0,0,1,.892,0v6.542A.446.446,0,0,1,117.778,130.1Zm0,0" transform="translate(-114.035 -119.223)" fill="#47b181"/>
    <path id="Path_800" data-name="Path 800" d="M363.114,130.1a.446.446,0,0,1-.446-.446v-6.542a.446.446,0,0,1,.892,0v6.542A.446.446,0,0,1,363.114,130.1Zm0,0" transform="translate(-352.532 -119.223)" fill="#47b181"/>
    <path id="Path_801" data-name="Path 801" d="M240.446,14.273a.446.446,0,0,1-.446-.446V.446a.446.446,0,0,1,.892,0V13.827A.446.446,0,0,1,240.446,14.273Zm0,0" transform="translate(-233.284 0.026)" fill="#47b181"/>
    <path id="Path_802" data-name="Path 802" d="M13.567,15.323H1.756A1.757,1.757,0,0,1,0,13.567V1.756A1.757,1.757,0,0,1,1.756,0H13.567a1.757,1.757,0,0,1,1.756,1.756V13.567A1.757,1.757,0,0,1,13.567,15.323ZM1.756.958a.8.8,0,0,0-.8.8V13.567a.8.8,0,0,0,.8.8H13.567a.8.8,0,0,0,.8-.8V1.756a.8.8,0,0,0-.8-.8Zm0,0" transform="translate(-0.499 -0.499)" fill="#47b181"/>
    <path id="Path_803" data-name="Path 803" d="M13.827,363.56H.446a.446.446,0,0,1,0-.892H13.827a.446.446,0,0,1,0,.892Zm0,0" transform="translate(0.026 -352.532)" fill="#47b181"/>
    <path id="Path_804" data-name="Path 804" d="M13.827,118.224H.446a.446.446,0,0,1,0-.892H13.827a.446.446,0,0,1,0,.892Zm0,0" transform="translate(0.026 -114.035)" fill="#47b181"/>
  </g>
</svg>
