<svg id="pie-chart" xmlns="http://www.w3.org/2000/svg" width="15.959" height="15.959" viewBox="0 0 15.959 15.959">
  <g id="Group_2199" data-name="Group 2199" transform="translate(1.709 1.709)">
    <g id="Group_2198" data-name="Group 2198">
      <path id="Path_812" data-name="Path 812" d="M63.968,54.842a.468.468,0,0,0-.609.446v2.761a.47.47,0,0,0,.245.415,3.791,3.791,0,1,1-5.147,5.147.472.472,0,0,0-.414-.245H55.281a.468.468,0,0,0-.445.61,7.282,7.282,0,1,0,9.133-9.133ZM61.315,68.118A6.346,6.346,0,0,1,55.953,64.3h1.826a4.727,4.727,0,0,0,3.536,2.191Zm2.979-10.332V55.961a6.346,6.346,0,0,1,3.817,5.361H66.485A4.728,4.728,0,0,0,64.294,57.786ZM62.25,68.118V66.492a4.734,4.734,0,0,0,4.235-4.235h1.626A6.356,6.356,0,0,1,62.25,68.118Z" transform="translate(-54.813 -54.82)" fill="#47b181"/>
    </g>
  </g>
  <g id="Group_2201" data-name="Group 2201">
    <g id="Group_2200" data-name="Group 2200">
      <path id="Path_813" data-name="Path 813" d="M8.678,0A8.673,8.673,0,0,0,0,8.678a.468.468,0,0,0,.468.468h8.21a.468.468,0,0,0,.468-.468V.468A.468.468,0,0,0,8.678,0ZM8.21,8.21H.949A7.74,7.74,0,0,1,8.21.949Z" fill="#47b181"/>
    </g>
  </g>
</svg>
