<svg id="redirect" xmlns="http://www.w3.org/2000/svg" width="15.334" height="15.334" viewBox="0 0 15.334 15.334">
  <g id="Group_2202" data-name="Group 2202" transform="translate(0 0)">
    <path id="Path_814" data-name="Path 814" d="M7.827,12.14H1.757A1.759,1.759,0,0,1,0,10.383V1.757A1.759,1.759,0,0,1,1.757,0h9.9a1.759,1.759,0,0,1,1.757,1.757V5.91a.479.479,0,1,1-.958,0V1.757a.8.8,0,0,0-.8-.8h-9.9a.8.8,0,0,0-.8.8v8.626a.8.8,0,0,0,.8.8h6.07a.479.479,0,1,1,0,.958Z" transform="translate(0 0)" fill="#47b181"/>
  </g>
  <g id="Group_2203" data-name="Group 2203" transform="translate(0 2.236)">
    <path id="Path_815" data-name="Path 815" d="M12.938,4.458H.479a.479.479,0,0,1,0-.958H12.938a.479.479,0,0,1,0,.958Z" transform="translate(0 -3.5)" fill="#47b181"/>
  </g>
  <g id="Group_2204" data-name="Group 2204" transform="translate(9.265 9.424)">
    <path id="Path_816" data-name="Path 816" d="M14.979,20.66a.479.479,0,0,1-.479-.479V19.063a4.318,4.318,0,0,1,4.313-4.313h.8a.479.479,0,0,1,0,.958h-.8a3.358,3.358,0,0,0-3.354,3.354v1.118A.479.479,0,0,1,14.979,20.66Z" transform="translate(-14.5 -14.75)" fill="#47b181"/>
  </g>
  <g id="Group_2205" data-name="Group 2205" transform="translate(12.459 7.667)">
    <path id="Path_817" data-name="Path 817" d="M19.979,16.473a.479.479,0,0,1-.324-.833l1.532-1.4-1.531-1.4a.479.479,0,1,1,.648-.707l1.917,1.757a.48.48,0,0,1,0,.707L20.3,16.347A.477.477,0,0,1,19.979,16.473Z" transform="translate(-19.5 -12)" fill="#47b181"/>
  </g>
</svg>
