<svg id="menu" xmlns="http://www.w3.org/2000/svg" width="16.249" height="16.249" viewBox="0 0 16.249 16.249">
  <path id="Path_768" data-name="Path 768" d="M5.522,7.617H2.095A2.1,2.1,0,0,1,0,5.522V2.095A2.1,2.1,0,0,1,2.095,0H5.522A2.1,2.1,0,0,1,7.617,2.095V5.522A2.1,2.1,0,0,1,5.522,7.617Zm-3.428-6.6A1.08,1.08,0,0,0,1.016,2.095V5.522A1.08,1.08,0,0,0,2.095,6.6H5.522A1.08,1.08,0,0,0,6.6,5.522V2.095A1.08,1.08,0,0,0,5.522,1.016Z" fill="#47b181"/>
  <path id="Path_769" data-name="Path 769" d="M277.522,7.617h-3.428A2.1,2.1,0,0,1,272,5.522V2.095A2.1,2.1,0,0,1,274.095,0h3.428a2.1,2.1,0,0,1,2.095,2.095V5.522A2.1,2.1,0,0,1,277.522,7.617Zm-3.428-6.6a1.08,1.08,0,0,0-1.079,1.079V5.522A1.08,1.08,0,0,0,274.095,6.6h3.428A1.08,1.08,0,0,0,278.6,5.522V2.095a1.08,1.08,0,0,0-1.079-1.079Z" transform="translate(-263.368)" fill="#47b181"/>
  <path id="Path_770" data-name="Path 770" d="M275.808,279.617a3.808,3.808,0,1,1,3.808-3.808A3.813,3.813,0,0,1,275.808,279.617Zm0-6.6a2.793,2.793,0,1,0,2.793,2.793A2.8,2.8,0,0,0,275.808,273.016Z" transform="translate(-263.368 -263.368)" fill="#47b181"/>
  <path id="Path_771" data-name="Path 771" d="M5.522,279.617H2.095A2.1,2.1,0,0,1,0,277.522v-3.428A2.1,2.1,0,0,1,2.095,272H5.522a2.1,2.1,0,0,1,2.095,2.095v3.428A2.1,2.1,0,0,1,5.522,279.617Zm-3.428-6.6a1.08,1.08,0,0,0-1.079,1.079v3.428A1.08,1.08,0,0,0,2.095,278.6H5.522A1.08,1.08,0,0,0,6.6,277.522v-3.428a1.08,1.08,0,0,0-1.079-1.079Z" transform="translate(0 -263.368)" fill="#47b181"/>
</svg>
