<svg id="_30-minutes" data-name="30-minutes" xmlns="http://www.w3.org/2000/svg" width="17.685" height="20.211" viewBox="0 0 17.685 20.211">
  <path id="Path_772" data-name="Path 772" d="M1.895,241.263H.632a.632.632,0,1,1,0-1.263H1.895a.632.632,0,1,1,0,1.263Zm0,0" transform="translate(0 -230.526)" fill="#47b181"/>
  <path id="Path_773" data-name="Path 773" d="M321.895,241.263h-1.263a.632.632,0,1,1,0-1.263h1.263a.632.632,0,1,1,0,1.263Zm0,0" transform="translate(-307.368 -230.526)" fill="#47b181"/>
  <path id="Path_774" data-name="Path 774" d="M53.072,117.682a.627.627,0,0,1-.446-.185l-.894-.894a.632.632,0,1,1,.894-.893l.893.893a.632.632,0,0,1-.447,1.079Zm0,0" transform="translate(-49.512 -110.964)" fill="#47b181"/>
  <path id="Path_775" data-name="Path 775" d="M279.334,343.966a.627.627,0,0,1-.446-.185l-.893-.894a.632.632,0,1,1,.893-.893l.894.893a.632.632,0,0,1-.447,1.079Zm0,0" transform="translate(-266.842 -328.315)" fill="#47b181"/>
  <path id="Path_776" data-name="Path 776" d="M52.2,343.966a.632.632,0,0,1-.446-1.079l.893-.893a.632.632,0,0,1,.893.893l-.893.894A.633.633,0,0,1,52.2,343.966Zm0,0" transform="translate(-49.532 -328.315)" fill="#47b181"/>
  <path id="Path_777" data-name="Path 777" d="M278.459,117.682a.632.632,0,0,1-.446-1.079l.894-.893a.632.632,0,1,1,.893.893l-.893.894A.634.634,0,0,1,278.459,117.682Zm0,0" transform="translate(-266.86 -110.964)" fill="#47b181"/>
  <path id="Path_778" data-name="Path 778" d="M176.632,20.211A.632.632,0,0,1,176,19.58V.632A.632.632,0,0,1,176.632,0a10.106,10.106,0,0,1,0,20.211Zm.632-18.926v17.64a8.843,8.843,0,0,0,0-17.64Zm0,0" transform="translate(-169.052)" fill="#47b181"/>
</svg>
