<svg xmlns="http://www.w3.org/2000/svg" width="18.034" height="18.032" viewBox="0 0 18.034 18.032">
  <g id="XMLID_35_" transform="translate(0 -0.021)">
    <g id="XMLID_118_" transform="translate(0 0.021)">
      <path id="XMLID_142_" d="M16.247,4.9a.352.352,0,0,0,.322-.1l1.07-1.07a1.349,1.349,0,0,0-.954-2.3h-.062q0-.031,0-.062a1.349,1.349,0,0,0-2.3-.954l-1.07,1.07a.352.352,0,0,0-.1.322L13.4,2.951l-.121.121A8.311,8.311,0,1,0,14.982,4.78l.122-.122ZM11.635,7.13l-.711-.711L13.57,3.774l.076.362a.352.352,0,0,0,.272.272l.362.076Zm-.224,2.611A3.1,3.1,0,1,1,9.479,6.869l-.565.565a.352.352,0,0,0-.1.25v.591a1.551,1.551,0,1,0,.967.968h.593a.352.352,0,0,0,.249-.1l.564-.564a3.1,3.1,0,0,1,.227,1.164Zm-1.185-1.2H9.517V7.828l.911-.911.711.711Zm-1.069,1.2a.846.846,0,1,1-.55-.792L8.2,9.355a.352.352,0,1,0,.5.5L9.1,9.448A.841.841,0,0,1,9.157,9.741Zm7.528-7.606a.645.645,0,0,1,.456,1.1l-.935.935L14.7,3.853l1.53-1.53h0A.641.641,0,0,1,16.685,2.135ZM14.819.913a.645.645,0,0,1,.912.912h0L14.2,3.355l-.318-1.507Zm1.1,8.828A7.608,7.608,0,1,1,8.312,2.133a7.517,7.517,0,0,1,4.459,1.443L11.658,4.69a6.059,6.059,0,0,0-8.643,7.991.352.352,0,1,0,.616-.342A5.355,5.355,0,0,1,11.148,5.2L10.011,6.337a3.8,3.8,0,1,0,1.707,1.707l1.138-1.138a5.355,5.355,0,0,1-7.141,7.516.352.352,0,1,0-.342.616A6.059,6.059,0,0,0,13.364,6.4l1.113-1.113A7.63,7.63,0,0,1,15.92,9.741Z" transform="translate(0 -0.021)" fill="#47b181"/>
      <path id="XMLID_149_" d="M111.8,380.553a.352.352,0,1,0,.249.1A.354.354,0,0,0,111.8,380.553Z" transform="translate(-107.526 -367.15)" fill="#47b181"/>
    </g>
  </g>
</svg>
