<svg xmlns="http://www.w3.org/2000/svg" width="17.625" height="17.728" viewBox="0 0 17.625 17.728">
  <g id="invoice" transform="translate(-1.5)">
    <g id="Group_2258" data-name="Group 2258" transform="translate(1.5)">
      <path id="Path_858" data-name="Path 858" d="M112.021,49.372a2.542,2.542,0,0,0,1.487.495v.565a.346.346,0,0,0,.693,0v-.591a2.011,2.011,0,0,0,1.045-.507,2.108,2.108,0,0,0,.649-1.2,1.8,1.8,0,0,0-1.243-2.062c-.163-.058-.313-.113-.452-.166V43.646a1.46,1.46,0,0,1,.7.3.346.346,0,0,0,.468-.511,2.18,2.18,0,0,0-1.165-.493V42.44a.346.346,0,1,0-.693,0v.535a2.594,2.594,0,0,0-.267.065,1.7,1.7,0,0,0-1.163,1.335,1.485,1.485,0,0,0,.483,1.464,4.3,4.3,0,0,0,.947.534v2.8a1.875,1.875,0,0,1-1.108-.382.346.346,0,1,0-.379.579Zm2.18-2.724.221.08a1.116,1.116,0,0,1,.791,1.294,1.38,1.38,0,0,1-1.012,1.113Zm-1.213-1.354a.8.8,0,0,1-.23-.791,1.016,1.016,0,0,1,.683-.8l.068-.019V45.61A3.019,3.019,0,0,1,112.988,45.294Z" transform="translate(-108.043 -40.636)" fill="#47b181"/>
      <path id="Path_859" data-name="Path 859" d="M17.585,0H5.273a1.541,1.541,0,0,0-1.54,1.539V14.244H1.846a.346.346,0,0,0-.346.346v1.6a1.541,1.541,0,0,0,1.54,1.54H6.369a.346.346,0,1,0,0-.693H3.04a.848.848,0,0,1-.847-.847V14.937H13.658v1.252a1.531,1.531,0,0,0,.255.847H9.481a.346.346,0,1,0,0,.693H15.2a1.542,1.542,0,0,0,1.541-1.54V4.869h2.04a.346.346,0,0,0,.346-.346V1.539A1.541,1.541,0,0,0,17.585,0Zm-1.54,1.539v14.65a.848.848,0,0,1-1.7,0v-1.6A.346.346,0,0,0,14,14.244H4.426V1.539A.848.848,0,0,1,5.273.693H16.3a1.529,1.529,0,0,0-.255.846Zm2.387,2.638H16.738V1.539a.847.847,0,0,1,1.694,0Z" transform="translate(-1.5)" fill="#47b181"/>
      <path id="Path_860" data-name="Path 860" d="M251.161,184.453h3.7a.594.594,0,0,0,.594-.593v-2.7a.594.594,0,0,0-.594-.594h-3.7a.594.594,0,0,0-.594.594v2.7A.594.594,0,0,0,251.161,184.453Zm.1-3.2h3.5v2.5h-3.5Z" transform="translate(-241.943 -174.312)" fill="#47b181"/>
      <path id="Path_861" data-name="Path 861" d="M310.818,42.787h2.118a.346.346,0,0,0,0-.693h-2.118a.346.346,0,0,0,0,.693Z" transform="translate(-299.774 -40.636)" fill="#47b181"/>
      <path id="Path_862" data-name="Path 862" d="M250.912,42.787h.689a.346.346,0,0,0,0-.693h-.689a.346.346,0,0,0,0,.693Z" transform="translate(-241.942 -40.636)" fill="#47b181"/>
      <path id="Path_863" data-name="Path 863" d="M250.912,135.109h.689a.346.346,0,0,0,0-.693h-.689a.346.346,0,0,0,0,.693Z" transform="translate(-241.942 -129.762)" fill="#47b181"/>
      <path id="Path_864" data-name="Path 864" d="M250.912,88.934h.689a.346.346,0,0,0,0-.693h-.689a.346.346,0,0,0,0,.693Z" transform="translate(-241.942 -85.186)" fill="#47b181"/>
      <path id="Path_865" data-name="Path 865" d="M310.818,135.109h2.118a.346.346,0,0,0,0-.693h-2.118a.346.346,0,0,0,0,.693Z" transform="translate(-299.774 -129.762)" fill="#47b181"/>
      <path id="Path_866" data-name="Path 866" d="M310.818,88.934h2.118a.346.346,0,0,0,0-.693h-2.118a.346.346,0,0,0,0,.693Z" transform="translate(-299.774 -85.186)" fill="#47b181"/>
      <path id="Path_867" data-name="Path 867" d="M321.26,365.209h-1.82a.346.346,0,1,0,0,.693h1.82a.346.346,0,0,0,0-.693Z" transform="translate(-308.097 -352.563)" fill="#47b181"/>
      <path id="Path_868" data-name="Path 868" d="M220.221,319.062h-5.444a.346.346,0,1,0,0,.693h5.444a.346.346,0,1,0,0-.693Z" transform="translate(-207.058 -308.014)" fill="#47b181"/>
      <path id="Path_869" data-name="Path 869" d="M117.309,365.209h-5.1a.346.346,0,1,0,0,.693h5.1a.346.346,0,0,0,0-.693Z" transform="translate(-108.044 -352.563)" fill="#47b181"/>
      <path id="Path_870" data-name="Path 870" d="M112.211,319.755h1.472a.346.346,0,1,0,0-.693h-1.472a.346.346,0,1,0,0,.693Z" transform="translate(-108.044 -308.014)" fill="#47b181"/>
      <path id="Path_871" data-name="Path 871" d="M177.393,492a.346.346,0,1,0,0,.693h0a.346.346,0,1,0,0-.693Z" transform="translate(-170.969 -474.964)" fill="#47b181"/>
    </g>
  </g>
</svg>
