<svg xmlns="http://www.w3.org/2000/svg" width="19.625" height="17.489" viewBox="0 0 19.625 17.489">
  <g id="calendar" transform="translate(0 -20.9)">
    <g id="Group_2260" data-name="Group 2260" transform="translate(0 20.9)">
      <g id="Group_2259" data-name="Group 2259" transform="translate(0 0)">
        <path id="Path_872" data-name="Path 872" d="M17.591,22.388H16.359v-.976a.511.511,0,1,0-1.022,0v.976h-5.01v-.976a.511.511,0,1,0-1.022,0v.976H4.243v-.976a.511.511,0,1,0-1.022,0v.976H2.04A2.069,2.069,0,0,0,0,24.458V36.344a2.04,2.04,0,0,0,2.04,2.045H17.586a2.039,2.039,0,0,0,2.04-2.04V24.458A2.061,2.061,0,0,0,17.591,22.388Zm1.017,13.956A1.02,1.02,0,0,1,17.6,37.366H2.04a1.017,1.017,0,0,1-1.017-1.017V24.458A1.04,1.04,0,0,1,2.04,23.41H3.221v.741a.511.511,0,1,0,1.022,0V23.41H9.3v.741a.511.511,0,1,0,1.022,0V23.41h5.01v.741a.511.511,0,1,0,1.022,0V23.41h1.232a1.04,1.04,0,0,1,1.017,1.048Z" transform="translate(0 -20.9)" fill="#47b181"/>
      </g>
    </g>
    <g id="Group_2262" data-name="Group 2262" transform="translate(7.065 26.733)">
      <g id="Group_2261" data-name="Group 2261" transform="translate(0 0)">
        <path id="Path_873" data-name="Path 873" d="M139.606,135h-.895a.511.511,0,1,0,0,1.022h.895a.511.511,0,0,0,0-1.022Z" transform="translate(-138.2 -135)" fill="#47b181"/>
      </g>
    </g>
    <g id="Group_2264" data-name="Group 2264" transform="translate(10.623 26.733)">
      <g id="Group_2263" data-name="Group 2263" transform="translate(0 0)">
        <path id="Path_874" data-name="Path 874" d="M209.206,135h-.895a.511.511,0,0,0,0,1.022h.895a.511.511,0,1,0,0-1.022Z" transform="translate(-207.8 -135)" fill="#47b181"/>
      </g>
    </g>
    <g id="Group_2266" data-name="Group 2266" transform="translate(14.212 26.733)">
      <g id="Group_2265" data-name="Group 2265" transform="translate(0 0)">
        <path id="Path_875" data-name="Path 875" d="M279.406,135h-.895a.511.511,0,0,0,0,1.022h.895a.511.511,0,0,0,0-1.022Z" transform="translate(-278 -135)" fill="#47b181"/>
      </g>
    </g>
    <g id="Group_2268" data-name="Group 2268" transform="translate(7.065 30.26)">
      <g id="Group_2267" data-name="Group 2267" transform="translate(0 0)">
        <path id="Path_876" data-name="Path 876" d="M139.606,204h-.895a.511.511,0,1,0,0,1.022h.895a.511.511,0,0,0,0-1.022Z" transform="translate(-138.2 -204)" fill="#47b181"/>
      </g>
    </g>
    <g id="Group_2270" data-name="Group 2270" transform="translate(3.476 30.26)">
      <g id="Group_2269" data-name="Group 2269" transform="translate(0 0)">
        <path id="Path_877" data-name="Path 877" d="M69.411,204h-.9a.511.511,0,0,0,0,1.022h.895A.511.511,0,0,0,69.411,204Z" transform="translate(-68 -204)" fill="#47b181"/>
      </g>
    </g>
    <g id="Group_2272" data-name="Group 2272" transform="translate(10.623 30.26)">
      <g id="Group_2271" data-name="Group 2271" transform="translate(0 0)">
        <path id="Path_878" data-name="Path 878" d="M209.206,204h-.895a.511.511,0,0,0,0,1.022h.895a.511.511,0,0,0,0-1.022Z" transform="translate(-207.8 -204)" fill="#47b181"/>
      </g>
    </g>
    <g id="Group_2274" data-name="Group 2274" transform="translate(14.212 30.26)">
      <g id="Group_2273" data-name="Group 2273" transform="translate(0 0)">
        <path id="Path_879" data-name="Path 879" d="M279.406,204h-.895a.511.511,0,0,0,0,1.022h.895a.511.511,0,0,0,0-1.022Z" transform="translate(-278 -204)" fill="#47b181"/>
      </g>
    </g>
    <g id="Group_2276" data-name="Group 2276" transform="translate(7.065 33.737)">
      <g id="Group_2275" data-name="Group 2275">
        <path id="Path_880" data-name="Path 880" d="M139.606,272h-.895a.511.511,0,1,0,0,1.022h.895a.511.511,0,0,0,0-1.022Z" transform="translate(-138.2 -272)" fill="#47b181"/>
      </g>
    </g>
    <g id="Group_2278" data-name="Group 2278" transform="translate(3.476 33.737)">
      <g id="Group_2277" data-name="Group 2277">
        <path id="Path_881" data-name="Path 881" d="M69.411,272h-.9a.511.511,0,1,0,0,1.022h.895A.511.511,0,0,0,69.411,272Z" transform="translate(-68 -272)" fill="#47b181"/>
      </g>
    </g>
    <g id="Group_2280" data-name="Group 2280" transform="translate(10.623 33.737)">
      <g id="Group_2279" data-name="Group 2279">
        <path id="Path_882" data-name="Path 882" d="M209.206,272h-.895a.511.511,0,1,0,0,1.022h.895a.511.511,0,1,0,0-1.022Z" transform="translate(-207.8 -272)" fill="#47b181"/>
      </g>
    </g>
  </g>
</svg>
