<svg xmlns="http://www.w3.org/2000/svg" width="15.596" height="15.986" viewBox="0 0 15.596 15.986">
  <g id="bell_1_" data-name="bell (1)" transform="translate(-42.657 -3.089)">
    <g id="Group_1137" data-name="Group 1137" transform="translate(42.657 3.089)">
      <g id="Group_1136" data-name="Group 1136" transform="translate(0)">
        <path id="Path_454" data-name="Path 454" d="M58.2,87.723l-1.34-2.232a6.634,6.634,0,0,1-.944-3.411V80.125a5.458,5.458,0,1,0-10.917,0V82.08a6.634,6.634,0,0,1-.944,3.411l-1.34,2.232a.39.39,0,0,0,.335.59H57.863a.39.39,0,0,0,.335-.59Zm-14.462-.189.985-1.641a7.407,7.407,0,0,0,1.056-3.812V80.125a4.679,4.679,0,1,1,9.357,0V82.08a7.413,7.413,0,0,0,1.055,3.812l.986,1.641Z" transform="translate(-42.657 -74.667)" fill="#787878"/>
      </g>
    </g>
    <g id="Group_1141" data-name="Group 1141" transform="translate(48.506 15.956)">
      <g id="Group_1140" data-name="Group 1140" transform="translate(0)">
        <path id="Path_456" data-name="Path 456" d="M206.3,426.872a.39.39,0,0,0-.674.395,1.17,1.17,0,1,1-2.026,0,.39.39,0,0,0-.674-.395,1.95,1.95,0,1,0,3.373,0Z" transform="translate(-202.666 -426.68)" fill="#787878"/>
      </g>
    </g>
  </g>
</svg>
