<svg id="Group_1142" data-name="Group 1142" xmlns="http://www.w3.org/2000/svg" width="18.693" height="13.507" viewBox="0 0 18.693 13.507">
  <path id="Path_457" data-name="Path 457" d="M17.734,85.333H.959A1,1,0,0,0,0,86.372V97.8A1,1,0,0,0,.959,98.84H17.734a1,1,0,0,0,.959-1.039V86.372A1,1,0,0,0,17.734,85.333Zm-.36.779L9.9,92.19a.938.938,0,0,1-1.1,0L1.318,86.112Zm-3.994,6.479,4.074,5.455c0,.005.009.01.013.015H1.225c0-.005.009-.009.013-.015l4.074-5.455a.412.412,0,0,0-.053-.548.341.341,0,0,0-.505.058L.719,97.5V86.6l7.645,6.214a1.608,1.608,0,0,0,1.965,0L17.973,86.6V97.5l-4.034-5.4a.341.341,0,0,0-.505-.058A.412.412,0,0,0,13.381,92.591Z" transform="translate(0 -85.333)" fill="#787878"/>
</svg>
